<?xml version="1.0" encoding="UTF-8" standalone="no"?>
<!-- Created with Inkscape (http://www.inkscape.org/) -->

<svg
   width="270.93332mm"
   height="270.93332mm"
   viewBox="0 0 270.93332 270.93332"
   version="1.1"
   id="svg1"
   xml:space="preserve"
   xmlns="http://www.w3.org/2000/svg"
   xmlns:svg="http://www.w3.org/2000/svg"><defs
     id="defs1" /><g
     id="layer1"><circle
       style="fill:#000000;stroke-width:0.333618;fill-opacity:1"
       id="path1"
       cx="135.46666"
       cy="135.46666"
       r="135.46666" /><path
       d="m 194.12363,81.01373 c -10.93928,-5.11822 -22.63609,-8.83793 -34.86478,-10.95597 -1.50182,2.71524 -3.2564,6.36731 -4.46607,9.27253 -12.99943,-1.95495 -25.87929,-1.95495 -38.63961,0 -1.20947,-2.90522 -3.00389,-6.55729 -4.51915,-9.27253 -12.241889,2.11804 -23.952119,5.85142 -34.891409,10.98307 -22.06463,33.34254 -28.045983,65.85691 -25.055298,97.90961 14.634418,10.92863 28.816948,17.56744 42.760118,21.91169 3.44265,-4.73808 6.513019,-9.77474 9.158059,-15.08293 -5.037579,-1.91418 -9.862539,-4.27637 -14.421539,-7.01873 1.20947,-0.89604 2.39255,-1.83288 3.53556,-2.79678 27.806639,13.00588 58.019289,13.00588 85.493719,0 1.15643,0.9639 2.33926,1.90074 3.53556,2.79678 -4.57246,2.75579 -9.41061,5.11798 -14.4482,7.03241 2.64504,5.29451 5.70223,10.34483 9.15805,15.08268 13.95665,-4.34425 28.1523,-10.98282 42.78675,-21.92512 3.50912,-37.15724 -5.99459,-69.37299 -25.12176,-97.93671 z m -86.72985,78.22459 c -8.347289,0 -15.192739,-7.79268 -15.192739,-17.28227 0,-9.48958 6.69928,-17.29569 15.192739,-17.29569 8.49367,0 15.33891,7.79244 15.19272,17.29569 0.0124,9.48959 -6.69905,17.28227 -15.19272,17.28227 z m 56.14517,0 c -8.34727,0 -15.19272,-7.79268 -15.19272,-17.28227 0,-9.48958 6.69904,-17.29569 15.19272,-17.29569 8.49344,0 15.3389,7.79244 15.19272,17.29569 0,9.48959 -6.69928,17.28227 -15.19272,17.28227 z"
       fill="#5865F2"
       fill-rule="nonzero"
       id="path1-1"
       style="fill:#ffffff;stroke-width:0.660131" /></g></svg>
