<?xml version="1.0" encoding="UTF-8" standalone="no"?>
<!-- Created with Inkscape (http://www.inkscape.org/) -->

<svg
   width="270.93332mm"
   height="270.93332mm"
   viewBox="0 0 270.93332 270.93332"
   version="1.1"
   id="svg1"
   xml:space="preserve"
   xmlns="http://www.w3.org/2000/svg"
   xmlns:svg="http://www.w3.org/2000/svg"><defs
     id="defs1" /><g
     id="layer1"><circle
       style="fill:#000000;fill-opacity:1;stroke-width:0.638749"
       id="path6"
       cx="135.46666"
       cy="135.46666"
       r="135.46666" /><path
       d="m 169.16642,266.41733 0.03,-25.82065 c 0.0275,-14.56818 0.019,-22.82654 -0.0238,-23.70553 -0.45287,-9.28878 -3.18131,-16.59646 -8.00675,-21.44417 -0.51833,-0.52073 -0.93407,-0.95373 -0.92397,-0.96273 0.0101,-0.009 0.44777,-0.0663 0.97255,-0.12764 37.08454,-4.33929 55.61974,-20.97235 59.5452,-53.43395 2.47353,-20.45482 -1.25492,-35.28308 -11.991,-47.687007 -0.441,-0.50949 -0.85644,-0.996495 -0.92294,-1.082105 -0.11924,-0.153612 -0.11632,-0.168083 0.21291,-1.092956 3.48926,-9.801891 3.08146,-21.84476 -1.12293,-33.147331 -0.65397,-1.758042 -0.47565,-1.634201 -2.5709,-1.78077 -7.91812,-0.553905 -20.35359,4.335862 -33.80673,13.293762 l -1.15135,0.766879 -0.52658,-0.150896 c -12.92077,-3.704851 -29.09272,-5.157035 -43.79112,-3.932576 -7.21573,0.601112 -14.83438,1.91638 -21.45193,3.70365 l -1.41438,0.381889 -0.95446,-0.635621 C 86.99336,60.049959 72.837429,54.806634 65.589795,56.343848 l -0.309542,0.06563 -0.326595,0.837675 c -4.332806,11.118399 -4.907871,23.48198 -1.547192,33.270837 0.236072,0.687637 0.444934,1.31371 0.464054,1.39113 0.02704,0.109638 -0.130307,0.328834 -0.711584,0.990637 -9.160582,10.429614 -13.392033,22.887494 -12.958383,38.152714 1.106869,38.96344 19.486075,58.39373 59.852157,63.27469 0.65144,0.0787 1.19093,0.14903 1.19993,0.15503 0.008,0.007 -0.42227,0.45425 -0.95705,0.99477 -3.85869,3.90015 -6.54793,9.80164 -7.46414,16.38039 l -0.0827,0.59221 -0.36174,0.17829 c -1.57996,0.77769 -4.999926,1.92702 -7.319448,2.4598 -12.017875,2.76038 -22.054909,-0.77155 -29.200801,-10.27535 -0.611821,-0.81369 -1.002109,-1.39605 -2.631881,-3.92379 -6.342866,-9.8377 -15.85558,-14.92007 -24.055896,-12.85296 -4.140227,1.04365 -2.520489,4.818 3.538802,8.24704 4.584375,2.59434 11.458806,12.02482 14.328324,19.65565 5.313949,14.13125 20.872615,19.63362 43.89345,15.52308 0.48859,-0.0872 0.93963,-0.15902 1.00303,-0.15916 0.10915,-2.5e-4 0.11524,0.79731 0.11524,15.82539 v 19.35334 a 135.46666,135.46666 0 0 0 33.40882,4.45244 135.46666,135.46666 0 0 0 33.69975,-4.516 z"
       style="fill:#ffffff;stroke-width:0.777192"
       id="path5" /></g></svg>
