<?xml version="1.0" encoding="UTF-8" standalone="no"?>
<!-- Created with Inkscape (http://www.inkscape.org/) -->

<svg
   width="270.93332mm"
   height="270.93332mm"
   viewBox="0 0 270.93332 270.93332"
   version="1.1"
   id="svg1"
   xml:space="preserve"
   xmlns="http://www.w3.org/2000/svg"
   xmlns:svg="http://www.w3.org/2000/svg"><defs
     id="defs1" /><g
     id="layer1"><circle
       style="fill:#000000;fill-opacity:1;stroke-width:0.638749"
       id="path6"
       cx="135.46666"
       cy="135.46666"
       r="135.46666" /><path
       d="M 245.29662,112.91788 C 238.59944,77.525962 203.19888,73.124713 203.19888,73.124713 H 44.658761 c -5.232973,0 -5.882763,6.913782 -5.882763,6.913782 0,0 -0.710438,63.454165 -0.190612,102.424225 1.420874,21.00124 22.404764,23.14987 22.404764,23.14987 0,0 71.62419,-0.19923 103.67183,-0.42453 21.12252,-3.69082 23.24517,-22.23147 23.02856,-32.35089 37.70517,2.07933 64.30326,-24.52739 57.60608,-59.91929 z m -95.83971,30.41882 c -10.79518,12.58861 -34.75078,34.44754 -34.75078,34.44754 0,0 -1.04833,1.031 -2.6858,0.19924 -0.65845,-0.49382 -0.93569,-0.77972 -0.93569,-0.77972 -3.83809,-3.82079 -29.179908,-26.41616 -34.950046,-34.25694 -6.14268,-8.36065 -9.019085,-23.39244 -0.788412,-32.14296 8.239342,-8.75052 26.034928,-9.40895 37.800448,3.5262 0,0 13.55896,-15.439026 30.0463,-8.34332 16.49601,7.1044 15.8722,26.0869 6.26398,37.34992 z m 53.48205,4.14135 c -8.04007,1.00499 -14.57263,0.24252 -14.57263,0.24252 V 98.501153 h 15.33506 c 0,0 17.07647,4.773777 17.07647,22.855257 0,16.57399 -8.53391,23.10655 -17.8389,26.12157 z"
       id="path1"
       style="fill:#ffffff;stroke-width:8.66388" /></g></svg>
