<?xml version="1.0" encoding="UTF-8"?>
<svg version="1.1" viewBox="0 0 200 200" xml:space="preserve" xmlns="http://www.w3.org/2000/svg" xmlns:xlink="http://www.w3.org/1999/xlink"><defs><linearGradient id="linearGradient1"><stop stop-color="#0b034f" offset="0"/><stop stop-color="#4461f2" offset="1"/></linearGradient><linearGradient id="linearGradient2" x1="100" x2="100" y1="185.84" y2="14.157" gradientUnits="userSpaceOnUse" xlink:href="#linearGradient1"/><mask id="mask9" maskUnits="userSpaceOnUse"><path d="m-4.1597 120.43 65.304 22.774-20.899 59.926-65.304-22.774z" fill="none" stroke="#149ffb" stroke-linecap="square" stroke-width="11" style="paint-order:markers fill stroke"/></mask><mask id="mask10" maskUnits="userSpaceOnUse"><path d="m178.79 52.448-45.404 19.386 5.9135-49.014z" fill="none" stroke="#149ffb" stroke-linecap="square" stroke-width="6.75" style="paint-order:markers fill stroke"/></mask></defs><path d="m48.678 14.157h102.64c19.124 0 34.521 15.396 34.521 34.521v102.64c0 19.124-15.396 34.521-34.521 34.521h-102.64c-19.124 0-34.521-15.396-34.521-34.521v-102.64c0-19.124 15.396-34.521 34.521-34.521z" fill="url(#linearGradient2)" stroke="#fff" stroke-linecap="square" stroke-linejoin="round" stroke-width="5" style="paint-order:markers fill stroke"/><path d="m48.678 14.157h102.64c19.124 0 34.521 15.396 34.521 34.521v102.64c0 19.124-15.396 34.521-34.521 34.521h-102.64c-19.124 0-34.521-15.396-34.521-34.521v-102.64c0-19.124 15.396-34.521 34.521-34.521z" fill="url(#linearGradient2)" stroke="#fff" stroke-linecap="square" stroke-linejoin="round" stroke-width="5" style="paint-order:markers fill stroke"/><path d="m50.17 16.403h99.848c18.603 0 33.58 14.977 33.58 33.58v99.848c0 18.603-14.977 33.58-33.58 33.58h-99.848c-18.603 0-33.58-14.977-33.58-33.58v-99.848c0-18.603 14.977-33.58 33.58-33.58z" fill="#0ff" mask="url(#mask9)" style="paint-order:markers fill stroke"/><path d="m50.076 16.496h99.848c18.603 0 33.58 14.977 33.58 33.58v99.848c0 18.603-14.977 33.58-33.58 33.58h-99.848c-18.603 0-33.58-14.977-33.58-33.58v-99.848c0-18.603 14.977-33.58 33.58-33.58z" fill="#0ff" mask="url(#mask10)" style="paint-order:markers fill stroke"/><g fill="none"><path transform="matrix(.91041 .0063593 -.0063593 .91041 28.548 42.178)" d="m166.13 88.68-23.677 14.288 13.949 23.879-14.288-23.677-23.879 13.949 23.677-14.288-13.949-23.879 14.288 23.677z" stroke="#139ffb" stroke-linecap="square" stroke-width="12.43" style="paint-order:markers fill stroke"/><path d="m117.98 135.88v-88.282l-65.093 69.568h83.807" stroke="#fff" stroke-linecap="square" stroke-linejoin="round" stroke-width="10" style="font-variation-settings:normal;paint-order:markers fill stroke"/><path d="m69.923 56.468a20.994 21.009 0 01-20.911 21.009 20.994 21.009 0 01-21.076-20.843 20.994 21.009 0 0120.744-21.174 20.994 21.009 0 0121.24 20.675" stop-color="#000000" stroke="#139ffb" stroke-linecap="round" stroke-width="9.4488" style="paint-order:markers fill stroke"/></g></svg>
