<?xml version="1.0" encoding="UTF-8" standalone="no"?>
<svg
   version="1.1"
   viewBox="0 0 256 256"
   xml:space="preserve"
   id="svg10"
   width="256"
   height="256"
   xmlns:xlink="http://www.w3.org/1999/xlink"
   xmlns="http://www.w3.org/2000/svg"
   xmlns:svg="http://www.w3.org/2000/svg"><defs
     id="defs3"><linearGradient
       id="linearGradient1"><stop
         stop-color="#0b034f"
         offset="0"
         id="stop1" /><stop
         stop-color="#4461f2"
         offset="1"
         id="stop2" /></linearGradient><linearGradient
       id="linearGradient2"
       x1="100"
       x2="100"
       y1="185.84"
       y2="14.157"
       gradientUnits="userSpaceOnUse"
       xlink:href="#linearGradient1"
       gradientTransform="matrix(1.4489308,0,0,1.4489308,-16.890188,-16.890188)" /><mask
       id="mask9"
       maskUnits="userSpaceOnUse"><path
         d="m -4.1597,120.43 65.304,22.774 -20.899,59.926 -65.304,-22.774 z"
         fill="none"
         stroke="#149ffb"
         stroke-linecap="square"
         stroke-width="11"
         style="paint-order:markers fill stroke"
         id="path2" /></mask><mask
       id="mask10"
       maskUnits="userSpaceOnUse"><path
         d="M 178.79,52.448 133.386,71.834 139.2995,22.82 Z"
         fill="none"
         stroke="#149ffb"
         stroke-linecap="square"
         stroke-width="6.75"
         style="paint-order:markers fill stroke"
         id="path3" /></mask><linearGradient
       xlink:href="#linearGradient1"
       id="linearGradient10"
       gradientUnits="userSpaceOnUse"
       x1="100"
       y1="185.84"
       x2="100"
       y2="14.157"
       gradientTransform="matrix(1.4489308,0,0,1.4489308,-16.890188,-16.890188)" /></defs><path
     d="M 53.640867,3.6223249 H 202.35913 c 27.70935,0 50.01854,22.3077391 50.01854,50.0185421 V 202.35913 c 0,27.70935 -22.30774,50.01854 -50.01854,50.01854 H 53.640867 c -27.709354,0 -50.0185421,-22.30774 -50.0185421,-50.01854 V 53.640867 c 0,-27.709354 22.3077391,-50.0185421 50.0185421,-50.0185421 z"
     fill="url(#linearGradient2)"
     stroke="#ffffff"
     stroke-linecap="square"
     stroke-linejoin="round"
     stroke-width="7.24465"
     style="fill:url(#linearGradient10);paint-order:markers fill stroke"
     id="path4" /><path
     d="M 53.640867,3.6223249 H 202.35913 c 27.70935,0 50.01854,22.3077391 50.01854,50.0185421 V 202.35913 c 0,27.70935 -22.30774,50.01854 -50.01854,50.01854 H 53.640867 c -27.709354,0 -50.0185421,-22.30774 -50.0185421,-50.01854 V 53.640867 c 0,-27.709354 22.3077391,-50.0185421 50.0185421,-50.0185421 z"
     fill="url(#linearGradient2)"
     stroke="#ffffff"
     stroke-linecap="square"
     stroke-linejoin="round"
     stroke-width="7.24465"
     style="fill:url(#linearGradient2);paint-order:markers fill stroke"
     id="path5" /><path
     d="m 50.17,16.403 h 99.848 c 18.603,0 33.58,14.977 33.58,33.58 v 99.848 c 0,18.603 -14.977,33.58 -33.58,33.58 H 50.17 c -18.603,0 -33.58,-14.977 -33.58,-33.58 V 49.983 c 0,-18.603 14.977,-33.58 33.58,-33.58 z"
     fill="#00ffff"
     mask="url(#mask9)"
     style="paint-order:markers fill stroke"
     id="path6"
     transform="matrix(1.4489308,0,0,1.4489308,-16.890189,-16.890189)" /><path
     d="m 50.076,16.496 h 99.848 c 18.603,0 33.58,14.977 33.58,33.58 v 99.848 c 0,18.603 -14.977,33.58 -33.58,33.58 H 50.076 c -18.603,0 -33.58,-14.977 -33.58,-33.58 V 50.076 c 0,-18.603 14.977,-33.58 33.58,-33.58 z"
     fill="#00ffff"
     mask="url(#mask10)"
     style="paint-order:markers fill stroke"
     id="path7"
     transform="matrix(1.4489308,0,0,1.4489308,-16.890189,-16.890189)" /><g
     fill="none"
     id="g10"
     transform="matrix(1.4489308,0,0,1.4489308,-16.890189,-16.890189)"><path
       transform="matrix(0.91041,0.0063593,-0.0063593,0.91041,28.548,42.178)"
       d="m 166.13,88.68 -23.677,14.288 13.949,23.879 -14.288,-23.677 -23.879,13.949 23.677,-14.288 -13.949,-23.879 14.288,23.677 z"
       stroke="#139ffb"
       stroke-linecap="square"
       stroke-width="12.43"
       style="paint-order:markers fill stroke"
       id="path8" /><path
       d="M 117.98,135.88 V 47.598 l -65.093,69.568 h 83.807"
       stroke="#ffffff"
       stroke-linecap="square"
       stroke-linejoin="round"
       stroke-width="10"
       style="font-variation-settings:normal;paint-order:markers fill stroke"
       id="path9" /><path
       d="M 69.923,56.468 A 20.994,21.009 0 0 1 49.012,77.477 20.994,21.009 0 0 1 27.936,56.634 20.994,21.009 0 0 1 48.68,35.46 20.994,21.009 0 0 1 69.92,56.135"
       stop-color="#000000"
       stroke="#139ffb"
       stroke-linecap="round"
       stroke-width="9.4488"
       style="paint-order:markers fill stroke"
       id="path10" /></g></svg>
