<?xml version="1.0" encoding="UTF-8" standalone="no"?>
<!-- Created with Inkscape (http://www.inkscape.org/) -->

<svg
   width="270.93332mm"
   height="270.93332mm"
   viewBox="0 0 270.93332 270.93332"
   version="1.1"
   id="svg1"
   xml:space="preserve"
   xmlns="http://www.w3.org/2000/svg"
   xmlns:svg="http://www.w3.org/2000/svg"><defs
     id="defs1" /><g
     id="layer1"><circle
       style="fill:#000000;stroke-width:0.333618;fill-opacity:1"
       id="path1"
       cx="135.46666"
       cy="135.46666"
       r="135.46666" /><path
       style="fill:#ffffff;stroke-width:0.919651"
       d="M 127.91974,230.21759 C 92.876618,226.51913 65.347566,207.84291 50.255669,177.52888 16.141246,109.0056 73.409234,30.261267 149.33221,41.297225 c 42.21581,6.136374 75.92718,40.924091 80.45613,83.024955 0.20147,1.8736 0.50363,4.56121 0.67126,5.97247 0.16771,1.41126 0.3048,3.68746 0.3048,5.0582 0,1.37075 -0.13704,3.64694 -0.3048,5.0582 -0.16771,1.41126 -0.4697,4.09886 -0.67126,5.97247 -5.37104,49.92872 -52.85577,89.00692 -101.8686,83.83407 z m 2.67232,-33.56648 -0.0853,-23.37832 -1.37459,0.16911 c -0.75603,0.0928 -2.61554,0.25691 -4.13227,0.36438 -6.59562,0.46713 -23.19189,3.77182 -24.24848,4.82841 -0.82108,0.82108 8.45034,17.15104 13.64214,24.02826 3.67631,4.86972 15.32473,17.36615 16.18804,17.36651 0.0527,3e-5 0.0575,-10.52019 0.0104,-23.37829 z m 16.15937,16.99793 c 7.98258,-8.15268 13.41243,-15.43061 18.47432,-24.76218 2.11012,-3.88995 4.98669,-10.05174 4.7862,-10.25226 -1.05659,-1.05659 -17.65286,-4.36127 -24.2485,-4.82841 -1.51669,-0.1075 -3.37623,-0.27126 -4.13224,-0.36434 l -1.37461,-0.16912 -0.0853,23.34136 -0.0853,23.34134 1.13551,-0.90915 c 0.62453,-0.50005 3.11303,-2.92882 5.53,-5.3973 z m -32.90176,3.12586 C 105.7969,208.07693 97.827547,195.75328 92.727413,184.11174 l -1.024708,-2.33897 -3.060606,1.3811 c -4.421889,1.99539 -10.70316,5.30733 -14.217839,7.4967 l -3.046469,1.8977 3.69983,3.60208 c 10.59101,10.31118 21.913379,16.98856 36.296139,21.40572 2.05203,0.63023 3.85618,1.15253 4.00923,1.16071 0.15304,0.008 -0.53694,-0.86567 -1.53332,-1.94188 z m 48.57584,-0.23412 c 12.32087,-4.02273 23.70509,-11.01904 33.42258,-20.5403 l 3.52879,-3.4575 -3.04215,-1.895 c -3.51074,-2.18697 -9.79337,-5.49946 -14.2135,-7.49406 l -3.06061,-1.3811 -1.02469,2.33898 c -5.10499,11.6526 -13.06862,23.96424 -21.14031,32.68262 -2.18216,2.35702 -2.51254,2.37216 5.52989,-0.25353 z M 68.983976,182.92343 c 5.268381,-3.30469 17.532699,-9.61214 18.689994,-9.61214 0.69046,0 0.612574,-0.77979 -0.44482,-4.45347 -2.196833,-7.63239 -3.903387,-17.44927 -4.293002,-24.69537 L 82.72412,140.21932 H 66.295729 49.86735 l 0.262143,3.001 c 0.990379,11.33738 4.733441,23.70732 10.02063,33.11585 1.707269,3.03811 5.227317,8.65028 5.427334,8.65309 0.0609,8.4e-4 1.593812,-0.92878 3.406519,-2.06583 z m 138.136634,-0.77295 c 8.13279,-12.65025 12.33872,-25.17172 13.67588,-40.71454 l 0.10469,-1.21662 h -16.43096 -16.43098 l -0.21217,3.94313 c -0.38964,7.2461 -2.0962,17.06298 -4.29301,24.69537 -1.26938,4.41016 -1.30547,4.17111 0.74486,4.93627 3.88756,1.45082 15.46874,7.63477 19.71977,10.52963 1.28852,0.87748 1.05677,1.03884 3.12178,-2.17324 z M 104.88515,167.64589 c 6.89875,-1.75489 15.28154,-3.08196 22.71016,-3.59518 l 3.0821,-0.21302 V 152.02848 140.21923 H 111.45487 92.232327 v 1.42558 c 0,5.92216 2.891086,22.22046 4.82375,27.19371 l 0.342153,0.88042 1.553541,-0.4795 c 0.854457,-0.26367 3.524479,-0.98087 5.933379,-1.59363 z m 69.70529,-1.87319 c 2.02846,-7.39582 3.38569,-15.24367 3.81608,-22.06574 l 0.22005,-3.48764 h -19.27031 -19.27033 v 11.80923 11.80922 l 3.08209,0.21302 c 9.23621,0.63811 20.48178,2.67178 28.54992,5.16304 1.88434,0.58184 1.71281,0.78734 2.87253,-3.44104 z M 82.942776,126.99875 c 0.543295,-8.75204 2.140453,-16.90146 5.617755,-28.6642 0.113905,-0.3853 -0.335542,-0.71338 -1.737111,-1.268031 -4.570618,-1.80873 -13.39663,-6.4456 -18.695405,-9.821896 -2.931548,-1.867928 -2.306162,-2.185875 -5.382803,2.736696 -7.053646,11.285751 -11.507359,24.520661 -12.620556,37.504071 l -0.257304,3.001 h 16.429466 16.429467 z m 47.734634,-8.31859 v -11.80625 l -2.91987,-0.21328 c -9.82827,-0.71784 -22.49109,-3.01024 -28.642957,-5.18539 -1.383487,-0.48918 -1.392371,-0.48742 -1.704514,0.33359 -2.032349,5.34549 -4.446008,17.64278 -5.039674,25.67653 l -0.221765,3.00097 h 19.26438 19.26438 z m 47.71552,8.80523 c -0.59365,-8.03374 -3.0073,-20.33104 -5.03969,-25.67654 -0.31214,-0.821 -0.321,-0.82276 -1.70449,-0.33358 -6.15187,2.17515 -18.81471,4.46759 -28.64295,5.18542 l -2.91989,0.21329 v 11.80621 11.80623 h 19.2644 19.26438 z m 42.40356,1.78438 c -1.27498,-14.82001 -5.36761,-27.43075 -12.72036,-39.195481 -3.14423,-5.030963 -2.50654,-4.69931 -5.4408,-2.829666 -5.2988,3.376296 -14.12479,8.013166 -18.6954,9.821896 -1.40158,0.554651 -1.85104,0.882731 -1.73714,1.268031 3.47733,11.76274 5.0745,19.91216 5.61777,28.6642 l 0.2164,3.48764 h 16.43205 16.43205 z m -90.2045,-54.74779 c 0.047,-12.579834 0.0351,-22.872383 -0.0262,-22.872383 -0.59593,2.25e-4 -9.10489,8.69416 -12.65018,12.925184 -7.15154,8.534815 -18.059258,26.726288 -16.57519,27.643518 1.25366,0.7748 11.71007,3.15334 17.65762,4.01662 3.00563,0.43627 4.94074,0.63327 10.94525,1.11437 0.52932,0.0425 0.56861,-1.33971 0.64885,-22.827309 z m 17.11807,22.185279 c 7.15141,-0.68847 22.06131,-3.86985 22.06131,-4.7073 0,-2.654891 -10.70766,-20.00704 -16.92351,-27.425178 -3.54527,-4.231024 -12.05424,-12.924959 -12.65018,-12.925184 -0.0615,0 -0.0733,10.290123 -0.0262,22.866985 l 0.0854,22.866977 2.0234,-0.17418 c 1.11286,-0.096 3.55634,-0.32174 5.42992,-0.50212 z M 93.489659,85.794955 c 4.928259,-10.978104 13.111501,-23.269069 21.186301,-31.821129 2.41463,-2.557365 2.54784,-2.501674 -2.49112,-1.041649 -14.411428,4.17564 -26.304784,11.106164 -37.107219,21.623172 l -3.69983,3.602085 3.046469,1.897706 c 4.346722,2.707656 16.506275,8.898426 17.483646,8.901435 0.08919,2.79e-4 0.801003,-1.422461 1.581753,-3.16162 z M 186.47955,85.38291 c 3.56877,-1.762495 7.93315,-4.108676 9.69863,-5.213723 l 3.21001,-2.009157 -3.70114,-3.603378 C 184.56172,63.725292 171.72628,56.434874 156.55078,52.32758 c -2.82938,-0.765776 -2.81032,-0.839054 -0.43551,1.673849 8.21537,8.693073 19.99955,26.833983 22.24288,34.241369 0.30036,0.991823 0.37712,0.964778 8.1214,-2.859888 z"
       id="path1-5" /></g></svg>
