<?xml version="1.0" encoding="UTF-8" standalone="no"?>
<!-- Created with Inkscape (http://www.inkscape.org/) -->

<svg
   width="270.93332mm"
   height="270.93332mm"
   viewBox="0 0 270.93332 270.93332"
   version="1.1"
   id="svg1"
   xml:space="preserve"
   xmlns="http://www.w3.org/2000/svg"
   xmlns:svg="http://www.w3.org/2000/svg"><defs
     id="defs1" /><g
     id="layer1"><circle
       style="fill:#000000;fill-opacity:1;stroke-width:0.638749"
       id="path6"
       cx="135.46666"
       cy="135.46666"
       r="135.46666" /><g
       style="fill:#ffffff;fill-rule:nonzero;stroke:none;stroke-width:0;stroke-linecap:butt;stroke-linejoin:miter;stroke-miterlimit:10;stroke-dasharray:none"
       transform="matrix(1.8837557,0,0,1.8837557,50.69765,50.69765)"
       id="g1">
	<path
   d="M 88.119,23.338 C 87.084,19.466 84.034,16.416 80.162,15.381 73.144,13.5 45,13.5 45,13.5 c 0,0 -28.144,0 -35.162,1.881 C 5.966,16.416 2.916,19.466 1.881,23.338 0,30.356 0,45 0,45 0,45 0,59.644 1.881,66.662 2.916,70.534 5.966,73.584 9.838,74.619 16.856,76.5 45,76.5 45,76.5 c 0,0 28.144,0 35.162,-1.881 3.872,-1.035 6.922,-4.085 7.957,-7.957 C 90,59.644 90,45 90,45 90,45 90,30.356 88.119,23.338 Z M 36,58.5 v -27 L 59.382,45 Z"
   style="opacity:1;fill:#ffffff;fill-rule:nonzero;stroke:none;stroke-width:1;stroke-linecap:butt;stroke-linejoin:miter;stroke-miterlimit:10;stroke-dasharray:none"
   stroke-linecap="round"
   id="path1" />
</g></g></svg>
